<?xml version="1.0" standalone="no"?>
<!DOCTYPE svg PUBLIC "-//W3C//DTD SVG 20010904//EN"
 "http://www.w3.org/TR/2001/REC-SVG-20010904/DTD/svg10.dtd">
<svg version="1.0" xmlns="http://www.w3.org/2000/svg"
 width="64.000000pt" height="64.000000pt" viewBox="0 0 64.000000 64.000000"
 preserveAspectRatio="xMidYMid meet">

<g transform="translate(0.000000,64.000000) scale(0.100000,-0.100000)"
fill="#ffffff" stroke="none">
<path d="M50 550 c-6 -24 -9 -58 -6 -76 5 -23 0 -42 -16 -70 -31 -52 -33 -179
-4 -238 42 -83 159 -123 341 -114 108 6 177 28 223 71 54 51 67 208 23 283
-16 26 -20 45 -15 68 3 18 1 52 -6 74 -13 51 -34 54 -100 16 -41 -24 -55 -26
-169 -28 -114 -1 -126 1 -158 22 -19 13 -49 26 -68 29 -33 5 -34 4 -45 -37z
m476 -253 c18 -21 24 -40 24 -75 0 -99 -58 -132 -230 -132 -173 0 -230 33
-230 133 0 40 5 54 28 76 l27 28 178 -1 179 -1 24 -28z"/>
<path d="M160 271 c-25 -47 0 -121 41 -121 13 0 25 12 35 35 12 31 12 39 0 70
-12 27 -21 35 -40 35 -15 0 -30 -8 -36 -19z"/>
<path d="M404 255 c-12 -31 -12 -39 0 -70 18 -41 47 -46 70 -13 32 46 14 118
-30 118 -19 0 -28 -8 -40 -35z"/>
</g>
</svg>
